<?xml version="1.0" encoding="UTF-8" standalone="no" ?>
<!DOCTYPE svg PUBLIC "-//W3C//DTD SVG 1.1//EN" "http://www.w3.org/Graphics/SVG/1.1/DTD/svg11.dtd">
<svg xmlns="http://www.w3.org/2000/svg" xmlns:xlink="http://www.w3.org/1999/xlink" version="1.1" width="1080" height="1080" viewBox="0 0 1080 1080" xml:space="preserve">
<desc>Created with Fabric.js 5.2.4</desc>
<defs>
</defs>
<g transform="matrix(1 0 0 1 540 540)" id="cb89cf9d-9a9a-47a5-8d36-719b60948e20"  >
<rect style="stroke: none; stroke-width: 1; stroke-dasharray: none; stroke-linecap: butt; stroke-dashoffset: 0; stroke-linejoin: miter; stroke-miterlimit: 4; fill: rgb(255,255,255); fill-rule: nonzero; opacity: 1; visibility: hidden;" vector-effect="non-scaling-stroke"  x="-540" y="-540" rx="0" ry="0" width="1080" height="1080" />
</g>
<g transform="matrix(1 0 0 1 540 540)" id="829422e6-ffb6-4d63-bb15-fbeed6d5d5fd"  >
</g>
<g transform="matrix(1 0 0 0.63 540 301.99)"  >
<g style="" vector-effect="non-scaling-stroke"   >
		<g transform="matrix(1 0 0 1 0 0)"  >
<path style="stroke: none; stroke-width: 1; stroke-dasharray: none; stroke-linecap: butt; stroke-dashoffset: 0; stroke-linejoin: miter; stroke-miterlimit: 4; fill: rgb(254,254,254); fill-rule: nonzero; opacity: 1;" vector-effect="non-scaling-stroke"  transform=" translate(-540, -540)" d="M 0 0 C 356.4 0 712.8 0 1080 0 C 1080 356.4 1080 712.8 1080 1080 C 723.6 1080 367.2 1080 0 1080 C 0 723.6 0 367.2 0 0 Z" stroke-linecap="round" />
</g>
		<g transform="matrix(1 0 0 1 236.35 -41.94)"  >
<path style="stroke: none; stroke-width: 1; stroke-dasharray: none; stroke-linecap: butt; stroke-dashoffset: 0; stroke-linejoin: miter; stroke-miterlimit: 4; fill: rgb(135,86,55); fill-rule: nonzero; opacity: 1;" vector-effect="non-scaling-stroke"  transform=" translate(34.65, -49.06)" d="M 0 0 C 9.92981284 7.80708384 16.87237578 16.06000548 21 28 C 21.37253906 28.86882812 21.74507812 29.73765625 22.12890625 30.6328125 C 27.18538711 43.28282384 26.69507426 57.04602071 21.55712891 69.5534668 C 19.15315515 74.99465955 16.42998455 80.14010105 13 85 C 12.56300781 85.62003906 12.12601563 86.24007812 11.67578125 86.87890625 C 7.43247815 92.31373859 1.80394181 96.34882745 -4 100 C -4.66 100 -5.32 100 -6 100 C -6 100.66 -6 101.32 -6 102 C -19.55857881 109.86397571 -35.7471323 110.99735702 -50.8125 107.375 C -57.26296448 105.45329912 -62.55111637 102.92209912 -68 99 C -68.83015625 98.43667969 -69.6603125 97.87335938 -70.515625 97.29296875 C -77.84570144 91.9528057 -82.18006687 85.55810527 -87 78 C -88.06347656 76.46859375 -88.06347656 76.46859375 -89.1484375 74.90625 C -96.27167603 63.72547053 -95.60653668 46.53656487 -93.67480469 33.8671875 C -92.20907504 27.27675347 -88.97921513 21.39357806 -85 16 C -84.40058594 15.18660156 -83.80117188 14.37320312 -83.18359375 13.53515625 C -62.84545932 -12.93227896 -27.71848301 -19.37067241 0 0 Z" stroke-linecap="round" />
</g>
		<g transform="matrix(1 0 0 1 396.5 -42)"  >
<path style="stroke: none; stroke-width: 1; stroke-dasharray: none; stroke-linecap: butt; stroke-dashoffset: 0; stroke-linejoin: miter; stroke-miterlimit: 4; fill: rgb(135,85,55); fill-rule: nonzero; opacity: 1;" vector-effect="non-scaling-stroke"  transform=" translate(-39.5, -57)" d="M 0 0 C 8.58 0 17.16 0 26 0 C 26.88042969 2.04960937 27.76085937 4.09921875 28.66796875 6.2109375 C 29.53779532 8.23028214 30.408622 10.24919273 31.27954102 12.26806641 C 31.87693815 13.65433617 32.47332065 15.04104369 33.06860352 16.42822266 C 36.1608084 23.63209779 39.31275587 30.76516661 42.88549805 37.74755859 C 44.72255488 41.46030478 46.26926709 45.2830457 47.8125 49.125 C 48.864375 51.72375 49.91625 54.3225 51 57 C 51.33 45.12 51.66 33.24 52 21 C 48.37 21 44.74 21 41 21 C 43.07977378 13.44713734 45.69084862 7.28013303 49 0 C 62.2 0 75.4 0 89 0 C 85.60208644 11.32637854 85.60208644 11.32637854 83.875 15.5625 C 83.37613281 16.80193359 83.37613281 16.80193359 82.8671875 18.06640625 C 82 20 82 20 81 21 C 79.02 21 77.04 21 75 21 C 75 51.69 75 82.38 75 114 C 68.07 114 61.14 114 54 114 C 50.02054378 105.62656087 46.17774555 97.22485351 42.5625 88.6875 C 42.20865234 87.85758545 41.85480469 87.0276709 41.49023438 86.17260742 C 41.16474609 85.39763916 40.83925781 84.6226709 40.50390625 83.82421875 C 40.06800171 82.78914185 40.06800171 82.78914185 39.62329102 81.7331543 C 39 80 39 80 39 78 C 38.34 78 37.68 78 37 78 C 36.76925781 77.40574219 36.53851562 76.81148437 36.30078125 76.19921875 C 35.97464844 75.37035156 35.64851562 74.54148437 35.3125 73.6875 C 34.99925781 72.88699219 34.68601562 72.08648438 34.36328125 71.26171875 C 32.35580453 66.45873004 30.15410819 61.73903801 28 57 C 27.67 68.88 27.34 80.76 27 93 C 30.63 93 34.26 93 38 93 C 35.92022622 100.55286266 33.30915138 106.71986697 30 114 C 16.8 114 3.6 114 -10 114 C -8.1881928 108.5645784 -6.38517206 103.25922557 -4.3125 97.9375 C -3.87550781 96.81214844 -3.43851563 95.68679688 -2.98828125 94.52734375 C -2.66214844 93.69332031 -2.33601562 92.85929688 -2 92 C -0.02 92 1.96 92 4 92 C 4 68.57 4 45.14 4 21 C 0.37 21 -3.26 21 -7 21 C -6.39219824 15.22588331 -4.22466112 10.29721196 -2 5 C -1.34 3.35 -0.68 1.7 0 0 Z" stroke-linecap="round" />
</g>
		<g transform="matrix(1 0 0 1 -275.5 -42)"  >
<path style="stroke: none; stroke-width: 1; stroke-dasharray: none; stroke-linecap: butt; stroke-dashoffset: 0; stroke-linejoin: miter; stroke-miterlimit: 4; fill: rgb(136,86,56); fill-rule: nonzero; opacity: 1;" vector-effect="non-scaling-stroke"  transform=" translate(-19.5, -57)" d="M 0 0 C 11.22 0 22.44 0 34 0 C 34.81984375 2.32675781 35.6396875 4.65351563 36.484375 7.05078125 C 37.29186247 9.34127298 38.09953598 11.63169903 38.90722656 13.92211914 C 39.46210793 15.49594403 40.01680037 17.06983555 40.57128906 18.64379883 C 46.00207344 34.30361342 46.00207344 34.30361342 51.9296875 49.77734375 C 54.30866595 55.66432709 56.39518935 61.64833219 58.46435547 67.65014648 C 59.12582771 69.56489595 59.7951784 71.47677486 60.46484375 73.38867188 C 62.71133583 79.88721015 64.69480778 86.24673013 66 93 C 69.63 93 73.26 93 77 93 C 76 98 76 98 69 114 C 55.8 114 42.6 114 29 114 C 29.78763667 109.27417997 30.46771412 106.524994 32.4375 102.375 C 33.08525391 100.99441406 33.08525391 100.99441406 33.74609375 99.5859375 C 34.81471895 97.38210609 35.89647149 95.18652627 37 93 C 39.31 93 41.62 93 44 93 C 43.6390625 92.02417969 43.278125 91.04835938 42.90625 90.04296875 C 42.43724838 88.75790431 41.96851221 87.47274296 41.5 86.1875 C 41.26152344 85.54490234 41.02304687 84.90230469 40.77734375 84.24023438 C 39.72931254 81.35066261 39 79.09923939 39 76 C 27.78 76 16.56 76 5 76 C 3.68 81.28 2.36 86.56 1 92 C 4.3 92 7.6 92 11 92 C 9.10746219 99.57015122 5.82821648 106.72744334 3 114 C -10.53 114 -24.06 114 -38 114 C -37.26795587 111.07182346 -36.51569835 108.63767605 -35.37109375 105.890625 C -34.90219727 104.75947266 -34.90219727 104.75947266 -34.42382812 103.60546875 C -34.09833984 102.82816406 -33.77285156 102.05085937 -33.4375 101.25 C -33.10814453 100.45722656 -32.77878906 99.66445313 -32.43945312 98.84765625 C -31.62880284 96.89739615 -30.81473514 94.94855716 -30 93 C -27.36 93 -24.72 93 -22 93 C -21.87882812 92.34773437 -21.75765625 91.69546875 -21.6328125 91.0234375 C -20.71056011 86.21353658 -19.69832723 81.60974535 -18 77 C -21.63 76.67 -25.26 76.34 -29 76 C -27.60747868 71.47430571 -26.30332834 67.26425561 -23.875 63.1875 C -21.80106969 60.00563615 -21.80106969 60.00563615 -21 56 C -17.37 56 -13.74 56 -10 56 C -9.3503125 53.525 -9.3503125 53.525 -8.6875 51 C -6.63709425 43.18893048 -3.58014056 35.8675403 -0.3125 28.5 C 0.00783203 27.77296875 0.32816406 27.0459375 0.65820312 26.296875 C 1.43685158 24.53038895 2.21814325 22.76506838 3 21 C -0.63 21 -4.26 21 -8 21 C -7.54859233 16.48592333 -6.25221895 13.15273672 -4.1328125 9.22265625 C -2.60308764 6.22123058 -1.32702368 3.09638859 0 0 Z" stroke-linecap="round" />
</g>
		<g transform="matrix(1 0 0 1 -168.5 -40.79)"  >
<path style="stroke: none; stroke-width: 1; stroke-dasharray: none; stroke-linecap: butt; stroke-dashoffset: 0; stroke-linejoin: miter; stroke-miterlimit: 4; fill: rgb(135,86,55); fill-rule: nonzero; opacity: 1;" vector-effect="non-scaling-stroke"  transform=" translate(-40.5, -58.21)" d="M 0 0 C 13.2 0 26.4 0 40 0 C 39.33577702 3.32111492 38.76292144 5.91831199 37.58984375 8.98828125 C 37.18862305 10.04692383 37.18862305 10.04692383 36.77929688 11.12695312 C 36.50150391 11.84818359 36.22371094 12.56941406 35.9375 13.3125 C 35.65583984 14.05306641 35.37417969 14.79363281 35.08398438 15.55664062 C 34.39281425 17.37242655 33.69688311 19.18639899 33 21 C 31.02 21 29.04 21 27 21 C 27.03813535 29.09359671 27.09760952 37.18664207 27.18390274 45.27985477 C 27.22331641 49.03839356 27.25553443 52.79670023 27.27099609 56.55541992 C 27.28620357 60.18671875 27.32071984 63.81737916 27.36830902 67.44839287 C 27.38308103 68.82972077 27.39103861 70.21113984 27.39188385 71.59254646 C 27.31817469 82.02897323 27.31817469 82.02897323 32 91 C 35.09780948 93.06520632 35.9540481 93.29477024 39.5 93.3125 C 40.66015625 93.33763672 40.66015625 93.33763672 41.84375 93.36328125 C 44.49062536 92.91734029 45.23477836 91.94482268 47 90 C 47.66 90 48.32 90 49 90 C 50.84166633 86.05886846 51.26755021 82.89200742 51.31884766 78.55737305 C 51.33871735 77.27642258 51.35858704 75.99547211 51.37905884 74.67570496 C 51.39093344 73.28771131 51.4025964 71.89971583 51.4140625 70.51171875 C 51.43278405 69.08395785 51.4523582 67.6562079 51.4727478 66.22846985 C 51.52397101 62.48194854 51.56364894 58.73539139 51.60089111 54.9887085 C 51.64099253 51.16100268 51.69205679 47.33344465 51.7421875 43.50585938 C 51.83883049 36.00400783 51.92327213 28.50208448 52 21 C 48.37 21 44.74 21 41 21 C 41.42472946 14.4874816 43.93986243 9.69128389 47 4 C 47.66 2.68 48.32 1.36 49 0 C 62.2 0 75.4 0 89 0 C 88.10654899 4.46725504 86.94130502 7.5650592 85 11.625 C 82.80386182 16.23354002 82.80386182 16.23354002 81 21 C 79.02 21 77.04 21 75 21 C 75.00999275 22.18817825 75.00999275 22.18817825 75.02018738 23.40036011 C 75.08055219 30.90246014 75.12610239 38.40444071 75.15543652 45.90672112 C 75.17102498 49.76279014 75.19213675 53.61865678 75.22631836 57.47460938 C 75.25915757 61.20289191 75.27690416 64.93098101 75.28463173 68.65939713 C 75.29013155 70.07461716 75.30087012 71.48982783 75.31719017 72.90496445 C 75.4849933 88.07266982 72.57816603 97.6420007 62.23828125 108.921875 C 54.81861584 115.90915897 46.37101062 116.49221111 36.59887695 116.41967773 C 30.67148591 116.22743468 25.95024696 115.46517287 21 112 C 20.319375 111.525625 19.63875 111.05125 18.9375 110.5625 C 12.0428864 105.13038019 6.7851966 97.32095078 4 89 C 3.75949097 85.81718445 3.75949097 85.81718445 3.77294922 82.19018555 C 3.77265717 81.52621262 3.77236511 80.86223969 3.77206421 80.17814636 C 3.7734504 77.99753457 3.78897761 75.81727038 3.8046875 73.63671875 C 3.80842017 72.11929003 3.81126594 70.60185888 3.81326294 69.08442688 C 3.82087945 65.10103641 3.84051077 61.11779302 3.8626709 57.13446045 C 3.88317214 53.065572 3.89227379 48.99665965 3.90234375 44.92773438 C 3.92375866 36.9517556 3.95787051 28.97589613 4 21 C 0.04 21 -3.92 21 -8 21 C -7.23204745 18.811487 -6.46049654 16.62423652 -5.6875 14.4375 C -5.25824219 13.21933594 -4.82898438 12.00117188 -4.38671875 10.74609375 C -3.04357873 7.11772396 -1.52407028 3.55616398 0 0 Z" stroke-linecap="round" />
</g>
		<g transform="matrix(1 0 0 1 19.5 -42)"  >
<path style="stroke: none; stroke-width: 1; stroke-dasharray: none; stroke-linecap: butt; stroke-dashoffset: 0; stroke-linejoin: miter; stroke-miterlimit: 4; fill: rgb(136,87,56); fill-rule: nonzero; opacity: 1;" vector-effect="non-scaling-stroke"  transform=" translate(-32.5, -57)" d="M 0 0 C 23.76 0 47.52 0 72 0 C 68.08108108 11.75675676 68.08108108 11.75675676 66.5 16.3125 C 66.0978125 17.48425781 65.695625 18.65601563 65.28125 19.86328125 C 64.10881731 22.73359664 62.85457449 24.56801182 61 27 C 60.20977526 28.89231076 59.48171423 30.81158636 58.8125 32.75 C 58.214375 34.4825 57.61625 36.215 57 38 C 50.4 38 43.8 38 37 38 C 37.88420206 32.69478762 39.05527566 28.90408748 41 24 C 41.66 24 42.32 24 43 24 C 43 23.01 43 22.02 43 21 C 37.72 21 32.44 21 27 21 C 27 29.25 27 37.5 27 46 C 35.58 46 44.16 46 53 46 C 52.18135447 50.09322767 51.29556435 52.86495322 49.5625 56.5625 C 49.13066406 57.49191406 48.69882812 58.42132813 48.25390625 59.37890625 C 47.19265831 61.59727812 46.09976551 63.80046897 45 66 C 39.06 66 33.12 66 27 66 C 27 74.58 27 83.16 27 92 C 34.59 91.67 42.18 91.34 50 91 C 50.804375 89.040625 51.60875 87.08125 52.4375 85.0625 C 54.875 79.125 54.875 79.125 56 78 C 57.41570123 77.91348389 58.835595 77.89295096 60.25390625 77.90234375 C 61.53491211 77.90717773 61.53491211 77.90717773 62.84179688 77.91210938 C 64.18854492 77.92467773 64.18854492 77.92467773 65.5625 77.9375 C 66.46419922 77.94201172 67.36589844 77.94652344 68.29492188 77.95117188 C 70.53001314 77.96299775 72.76497437 77.9794778 75 78 C 72.49786416 90.5106792 66.60572141 102.10188636 62 114 C 38.24 114 14.48 114 -10 114 C -9.2619948 111.04797918 -8.47313714 108.47707636 -7.37109375 105.671875 C -7.05849609 104.87265625 -6.74589844 104.0734375 -6.42382812 103.25 C -6.09833984 102.425 -5.77285156 101.6 -5.4375 100.75 C -5.10814453 99.90953125 -4.77878906 99.0690625 -4.43945312 98.203125 C -3.62847805 96.13455089 -2.81525868 94.06688878 -2 92 C -0.02 92 1.96 92 4 92 C 4 83.42 4 74.84 4 66 C 0.04 66 -3.92 66 -8 66 C -5.83836487 59.06001352 -3.1063786 52.56882431 0 46 C 1.32 46 2.64 46 4 46 C 4 37.75 4 29.5 4 21 C 0.37 21 -3.26 21 -7 21 C -6 15 -6 15 0 0 Z" stroke-linecap="round" />
</g>
		<g transform="matrix(1 0 0 1 -71 -41.29)"  >
<path style="stroke: none; stroke-width: 1; stroke-dasharray: none; stroke-linecap: butt; stroke-dashoffset: 0; stroke-linejoin: miter; stroke-miterlimit: 4; fill: rgb(135,85,55); fill-rule: nonzero; opacity: 1;" vector-effect="non-scaling-stroke"  transform=" translate(0.75, -59.08)" d="M 0 0 C 0.70302246 0.00161133 1.40604492 0.00322266 2.13037109 0.00488281 C 10.72910885 0.20618445 17.39933121 3.32713878 24.25 8.375 C 24.91 6.065 25.57 3.755 26.25 1.375 C 33.18 1.375 40.11 1.375 47.25 1.375 C 46.59 3.025 45.93 4.675 45.25 6.375 C 44.78754876 8.26490188 44.35123723 10.16133936 43.9375 12.0625 C 42.72183902 17.09091589 40.9610822 21.24092732 38.51953125 25.77734375 C 36.59597516 29.71323545 35.34498764 33.82760124 34.046875 38.00390625 C 33.25 40.375 33.25 40.375 32.25 41.375 C 30.7612814 41.46169432 29.268555 41.48203494 27.77734375 41.47265625 C 26.87822266 41.46943359 25.97910156 41.46621094 25.05273438 41.46289062 C 23.63444336 41.45032227 23.63444336 41.45032227 22.1875 41.4375 C 20.7634082 41.43073242 20.7634082 41.43073242 19.31054688 41.42382812 C 16.95696935 41.4120011 14.60351523 41.39552025 12.25 41.375 C 12.28480469 40.49457031 12.31960938 39.61414063 12.35546875 38.70703125 C 12.39607422 36.96486328 12.39607422 36.96486328 12.4375 35.1875 C 12.47230469 34.03894531 12.50710938 32.89039063 12.54296875 31.70703125 C 12.22256722 28.06299788 11.43681168 26.26977229 9.25 23.375 C 5.32572871 21.08584175 1.72512151 20.97543558 -2.75 21.375 C -6.89798495 23.16617532 -8.9914131 25.20992576 -10.75 29.375 C -11.29333853 34.26504676 -11.27109104 36.37003871 -9 40.75 C -6.29915699 43.90098351 -4.44624645 45.18532388 -0.3046875 45.6484375 C 0.57960938 45.68195313 1.46390625 45.71546875 2.375 45.75 C 8.21864454 46.1668414 12.97371521 47.9142598 18.25 50.375 C 18.25 51.035 18.25 51.695 18.25 52.375 C 18.98992187 52.62765625 19.72984375 52.8803125 20.4921875 53.140625 C 25.96956352 55.59225506 29.98511755 60.35118809 33.125 65.375 C 37.62315924 77.37009129 37.15520172 87.4776008 32.25 99.375 C 28.87557126 105.49489591 24.1144626 109.683774 18.25 113.375 C 17.62996094 113.79007813 17.00992188 114.20515625 16.37109375 114.6328125 C 8.3753192 119.10794268 -2.89924654 118.78615734 -11.6328125 116.6796875 C -16.88057357 114.50378657 -21.37459999 110.95162126 -25.75 107.375 C -26.059375 108.509375 -26.36875 109.64375 -26.6875 110.8125 C -27.75 114.375 -27.75 114.375 -28.75 115.375 C -30.2387186 115.46169432 -31.731445 115.48203494 -33.22265625 115.47265625 C -34.12177734 115.46943359 -35.02089844 115.46621094 -35.94726562 115.46289062 C -37.36555664 115.45032227 -37.36555664 115.45032227 -38.8125 115.4375 C -39.76189453 115.43298828 -40.71128906 115.42847656 -41.68945312 115.42382812 C -44.04303065 115.4120011 -46.39648477 115.39552025 -48.75 115.375 C -48.18060084 110.16189993 -46.9252775 105.58760218 -45.02734375 100.69140625 C -44.76240616 99.99103745 -44.49746857 99.29066864 -44.22450256 98.56907654 C -43.38555237 96.35592701 -42.53672031 94.14672627 -41.6875 91.9375 C -41.11327213 90.42798534 -40.53969794 88.91822184 -39.96679688 87.40820312 C -38.56993111 83.7270272 -37.15973535 80.05136865 -35.75 76.375 C -28.82 76.375 -21.89 76.375 -14.75 76.375 C -14.255 81.325 -14.255 81.325 -13.75 86.375 C -12.79622464 88.98633956 -12.79622464 88.98633956 -11.375 90.875 C -10.74464844 91.81859375 -10.74464844 91.81859375 -10.1015625 92.78125 C -7.97246655 95.29186026 -6.27374514 96.31755217 -3.0078125 96.67578125 C -1.97398437 96.67964844 -0.94015625 96.68351563 0.125 96.6875 C 1.15367187 96.70425781 2.18234375 96.72101563 3.2421875 96.73828125 C 6.6741355 96.32377325 8.48743478 95.42187475 11.25 93.375 C 14.65831671 88.7691666 15.92598612 85.26182804 15.6328125 79.515625 C 14.79234846 74.81588732 12.25246615 72.16775142 8.6171875 69.29296875 C 4.64664226 67.03132407 1.46422403 66.5372633 -3 66 C -12.09014628 64.62803142 -19.0916928 61.95726275 -25.125 54.6875 C -31.3262332 45.35041592 -33.29771253 35.48827417 -31.75 24.375 C -28.45562781 14.71077858 -22.60523396 7.45295106 -13.75 2.375 C -9.1651167 0.49787945 -4.91055439 -0.01175055 0 0 Z" stroke-linecap="round" />
</g>
		<g transform="matrix(1 0 0 1 119.27 -42.51)"  >
<path style="stroke: none; stroke-width: 1; stroke-dasharray: none; stroke-linecap: butt; stroke-dashoffset: 0; stroke-linejoin: miter; stroke-miterlimit: 4; fill: rgb(136,86,56); fill-rule: nonzero; opacity: 1;" vector-effect="non-scaling-stroke"  transform=" translate(35.73, -51.49)" d="M 0 0 C 0.33 -1.65 0.66 -3.3 1 -5 C 7.6 -5 14.2 -5 21 -5 C 20.24995187 -1.24975933 19.49312945 1.55955431 18.07421875 5.01953125 C 17.68943359 5.95990234 17.30464844 6.90027344 16.90820312 7.86914062 C 16.50537109 8.84044922 16.10253906 9.81175781 15.6875 10.8125 C 15.29626953 11.77220703 14.90503906 12.73191406 14.50195312 13.72070312 C 12.21503309 19.27681895 9.75478939 24.66076001 7 30 C 6.34 31.32 5.68 32.64 5 34 C -1.27 34 -7.54 34 -14 34 C -13 28 -13 28 -11.875 25.375 C -10.87272613 23.11236198 -10.87272613 23.11236198 -11.0625 21.0234375 C -11.88800099 18.72547532 -11.88800099 18.72547532 -14.6328125 17.515625 C -26.99261525 13.0362334 -38.08568406 11.92123479 -50.4140625 17.515625 C -53.11426809 18.97750176 -53.11426809 18.97750176 -55.7109375 21.171875 C -58 23 -58 23 -60 23 C -60.433125 23.928125 -60.433125 23.928125 -60.875 24.875 C -62 27 -62 27 -64 29 C -64.71677231 30.81432991 -65.37727315 32.65127968 -66 34.5 C -67.77777778 39.77777778 -67.77777778 39.77777778 -70 42 C -70.25613805 44.7162547 -70.37964566 47.28199661 -70.375 50 C -70.37628906 50.76513916 -70.37757813 51.53027832 -70.37890625 52.31860352 C -70.27644087 57.82786449 -69.33808809 62.22880084 -66.875 67.21484375 C -66 69 -66 69 -66 71 C -65.34 71 -64.68 71 -64 71 C -62.7734375 72.5390625 -62.7734375 72.5390625 -61.375 74.625 C -56.36900065 81.49002337 -50.24854025 85.74983236 -42 88 C -38.66740156 88.45456723 -35.36013711 88.59717373 -32 88.6875 C -31.12988281 88.72166016 -30.25976562 88.75582031 -29.36328125 88.79101562 C -27.24261185 88.87257983 -25.12133109 88.93798528 -23 89 C -23 88.34 -23 87.68 -23 87 C -21.1128125 86.443125 -21.1128125 86.443125 -19.1875 85.875 C -13.40227233 83.96808578 -8.25800098 81.03686412 -3 78 C -2.31164062 78.99580078 -2.31164062 78.99580078 -1.609375 80.01171875 C 2.25886022 85.59102622 2.25886022 85.59102622 6.4375 90.9375 C 8 93 8 93 8 96 C 4.58034114 98.69737577 0.74595422 100.78559477 -3 103 C -3.763125 103.48210937 -4.52625 103.96421875 -5.3125 104.4609375 C -17.76982571 112.01777111 -33.26594501 112.96781945 -47.3125 109.875 C -62.22310644 105.47514892 -75.2987054 96.72738313 -83 83 C -83.69799419 81.01071657 -84.38001259 79.01495907 -85 77 C -85.99 76.67 -86.98 76.34 -88 76 C -91.86730512 67.48934191 -92.38785248 58.33869014 -92.4375 49.125 C -92.44740967 48.16319824 -92.45731934 47.20139648 -92.4675293 46.21044922 C -92.28162209 30.71996541 -84.35754889 18.11109838 -74.09375 6.921875 C -52.3145292 -13.56535812 -25.42863133 -11.36371071 0 0 Z" stroke-linecap="round" />
</g>
		<g transform="matrix(1 0 0 1 -389.66 -42.45)"  >
<path style="stroke: none; stroke-width: 1; stroke-dasharray: none; stroke-linecap: butt; stroke-dashoffset: 0; stroke-linejoin: miter; stroke-miterlimit: 4; fill: rgb(135,85,55); fill-rule: nonzero; opacity: 1;" vector-effect="non-scaling-stroke"  transform=" translate(1.16, -59.8)" d="M 0 0 C 1.34771484 -0.01160156 1.34771484 -0.01160156 2.72265625 -0.0234375 C 10.95022448 0.00051466 17.69611315 1.78611518 25.375 4.8125 C 27.04175781 5.46412109 27.04175781 5.46412109 28.7421875 6.12890625 C 31.5 7.25 31.5 7.25 33.5 8.25 C 33.5 7.59 33.5 6.93 33.5 6.25 C 34.16 6.25 34.82 6.25 35.5 6.25 C 35.5 5.26 35.5 4.27 35.5 3.25 C 42.1 3.25 48.7 3.25 55.5 3.25 C 54.6197896 8.53126238 54.44825512 9.45559547 51.68115234 13.29052734 C 48.84140756 18.0015219 47.21594493 23.42236017 45.3125 28.5625 C 44.42540629 30.93442866 43.53620153 33.30556925 42.64453125 35.67578125 C 42.25628174 36.72161377 41.86803223 37.76744629 41.46801758 38.8449707 C 40.5 41.25 40.5 41.25 39.5 42.25 C 38.08429877 42.33651611 36.664405 42.35704904 35.24609375 42.34765625 C 34.39208984 42.34443359 33.53808594 42.34121094 32.65820312 42.33789062 C 31.31145508 42.32532227 31.31145508 42.32532227 29.9375 42.3125 C 29.03580078 42.30798828 28.13410156 42.30347656 27.20507812 42.29882812 C 24.96998686 42.28700225 22.73502563 42.2705222 20.5 42.25 C 21.10701524 38.2852608 21.99610798 34.95960031 23.5 31.25 C 23.5 30.26 23.5 29.27 23.5 28.25 C 21.5848421 27.43395001 19.66781166 26.62229368 17.75 25.8125 C 16.68265625 25.36003906 15.6153125 24.90757812 14.515625 24.44140625 C 6.42610698 21.24541791 -4.2278814 20.39985738 -12.375 23.875 C -13.77188805 24.62737285 -15.14750556 25.42047008 -16.5 26.25 C -17.65435547 26.90355469 -17.65435547 26.90355469 -18.83203125 27.5703125 C -26.58597994 32.27668932 -31.68393465 38.68749403 -34.80078125 47.22265625 C -37.35146023 58.26609876 -36.3936319 69.44702433 -30.5 79.25 C -24.87692574 87.06999629 -17.78825466 93.34656546 -8.5 96.25 C -4.45939548 96.69971546 -0.49632509 96.63316019 3.5625 96.5 C 4.61888672 96.48195313 5.67527344 96.46390625 6.76367188 96.4453125 C 9.3434255 96.39862013 11.92120817 96.33315588 14.5 96.25 C 14.5 95.59 14.5 94.93 14.5 94.25 C 15.16386719 94.00765625 15.82773438 93.7653125 16.51171875 93.515625 C 21.45731756 91.63846341 25.57130813 89.91677907 29.5 86.25 C 33.80054013 87.74499589 35.57011483 90.90272261 37.8125 94.625 C 38.18439453 95.2025 38.55628906 95.78 38.93945312 96.375 C 41.5577318 100.64615851 41.5577318 100.64615851 41.30444336 103.29541016 C 40.30615697 105.72098857 39.37708594 106.35278196 37.140625 107.6875 C 36.44388672 108.10596191 35.74714844 108.52442383 35.02929688 108.95556641 C 34.27712891 109.38272949 33.52496094 109.80989258 32.75 110.25 C 31.59081055 110.91201416 31.59081055 110.91201416 30.40820312 111.58740234 C 15.89676504 119.64431121 1.36411264 121.71685752 -14.6875 117.4375 C -19.2454604 116.12589287 -23.30862954 114.46970909 -27.5 112.25 C -27.5 111.59 -27.5 110.93 -27.5 110.25 C -28.304375 110.085 -29.10875 109.92 -29.9375 109.75 C -41.01432114 105.08607531 -48.75590416 93.77285966 -53.375 83.0625 C -56.62995686 74.92510785 -57.86754673 67.63724292 -57.8125 58.9375 C -57.80686035 58.00687744 -57.8012207 57.07625488 -57.79541016 56.11743164 C -57.6771118 49.42654685 -57.10175673 43.47844792 -54.5 37.25 C -54.0978125 36.2703125 -53.695625 35.290625 -53.28125 34.28125 C -46.36992491 19.07633479 -33.81379179 8.50329298 -18.5 2.25 C -12.23274651 0.30589928 -6.53868534 -0.0562871 0 0 Z" stroke-linecap="round" />
</g>
		<g transform="matrix(1 0 0 1 235.92 -41.9)"  >
<path style="stroke: none; stroke-width: 1; stroke-dasharray: none; stroke-linecap: butt; stroke-dashoffset: 0; stroke-linejoin: miter; stroke-miterlimit: 4; fill: rgb(253,253,252); fill-rule: nonzero; opacity: 1;" vector-effect="non-scaling-stroke"  transform=" translate(23.89, -30.85)" d="M 0 0 C 7.27628901 6.11987879 13.20149427 14.00619945 14.43115234 23.66357422 C 15.43315097 35.63423003 13.61421148 45.79691957 5.6875 55.25 C 3.0462797 58.01206044 0.34800028 60.5827998 -2.8125 62.75 C -3.4725 62.75 -4.1325 62.75 -4.8125 62.75 C -4.8125 63.41 -4.8125 64.07 -4.8125 64.75 C -15.00684386 69.68203677 -27.3782386 71.03359184 -38.25 67.3125 C -45.86949348 63.65253818 -52.8101824 57.20886461 -56.8125 49.75 C -56.8125 49.09 -56.8125 48.43 -56.8125 47.75 C -57.4725 47.75 -58.1325 47.75 -58.8125 47.75 C -63.21366639 37.66399369 -63.73448504 25.59821052 -59.8125 15.25 C -55.21594122 5.8508742 -48.36710361 -0.94678158 -38.8125 -5.25 C -25.5522626 -9.71320186 -11.32677758 -8.26344207 0 0 Z" stroke-linecap="round" />
</g>
		<g transform="matrix(1 0 0 1 321.5 -42)"  >
<path style="stroke: none; stroke-width: 1; stroke-dasharray: none; stroke-linecap: butt; stroke-dashoffset: 0; stroke-linejoin: miter; stroke-miterlimit: 4; fill: rgb(135,85,54); fill-rule: nonzero; opacity: 1;" vector-effect="non-scaling-stroke"  transform=" translate(-14.5, -57)" d="M 0 0 C 13.2 0 26.4 0 40 0 C 38.21291587 5.3612524 36.50432698 10.40874466 34.3125 15.5625 C 33.87550781 16.59503906 33.43851563 17.62757813 32.98828125 18.69140625 C 32.49908203 19.83416016 32.49908203 19.83416016 32 21 C 29.69 21 27.38 21 25 21 C 25 44.76 25 68.52 25 93 C 28.96 93 32.92 93 37 93 C 36.47729597 97.49525464 35.34255634 100.18250078 33 104 C 31.02 108.95 31.02 108.95 29 114 C 15.8 114 2.6 114 -11 114 C -9.875 107.25 -9.875 107.25 -8.37109375 104.1328125 C -7.90219727 103.14667969 -7.90219727 103.14667969 -7.42382812 102.140625 C -7.09833984 101.47546875 -6.77285156 100.8103125 -6.4375 100.125 C -6.10814453 99.43664062 -5.77878906 98.74828125 -5.43945312 98.0390625 C -4.63304639 96.3561267 -3.81745506 94.67759707 -3 93 C -1.02 93 0.96 93 3 93 C 3 69.24 3 45.48 3 21 C -0.96 21 -4.92 21 -9 21 C -8.17530139 16.87650694 -7.652083 15.02804237 -5.625 11.625 C -3.34595041 7.77997768 -1.80947107 4.22209917 0 0 Z" stroke-linecap="round" />
</g>
		<g transform="matrix(1 0 0 1 0 91)"  >
<path style="stroke: none; stroke-width: 1; stroke-dasharray: none; stroke-linecap: butt; stroke-dashoffset: 0; stroke-linejoin: miter; stroke-miterlimit: 4; fill: rgb(146,68,42); fill-rule: nonzero; opacity: 1;" vector-effect="non-scaling-stroke"  transform=" translate(0, -21)" d="M 0 0 C 2.39363143 2.94089332 4.69598412 5.87370374 6.75 9.0625 C 7.17796875 9.71347656 7.6059375 10.36445312 8.046875 11.03515625 C 9 13 9 13 9 17 C 9.66 17 10.32 17 11 17 C 11.875 19.375 11.875 19.375 12 23 C 10.32326936 26.53909932 8.13519886 29.72374304 6 33 C 5.02601277 34.6994571 4.066374 36.40726296 3.125 38.125 C 2.51011719 39.24261719 2.51011719 39.24261719 1.8828125 40.3828125 C 1.59148438 40.91648437 1.30015625 41.45015625 1 42 C -2.55114333 38.79998096 -4.86821633 35.19195628 -7.1875 31.0625 C -7.54263672 30.45470703 -7.89777344 29.84691406 -8.26367188 29.22070312 C -10.19810582 25.81800813 -11.64316304 22.90743874 -12 19 C -11.01196289 16.68823242 -11.01196289 16.68823242 -9.47265625 14.35546875 C -8.92802734 13.51435547 -8.38339844 12.67324219 -7.82226562 11.80664062 C -6.95118164 10.51016602 -6.95118164 10.51016602 -6.0625 9.1875 C -5.48564453 8.30384766 -4.90878906 7.42019531 -4.31445312 6.50976562 C -2.88929212 4.33080045 -1.45102302 2.16179287 0 0 Z" stroke-linecap="round" />
</g>
		<g transform="matrix(1 0 0 1 -273.5 -56)"  >
<path style="stroke: none; stroke-width: 1; stroke-dasharray: none; stroke-linecap: butt; stroke-dashoffset: 0; stroke-linejoin: miter; stroke-miterlimit: 4; fill: rgb(248,246,244); fill-rule: nonzero; opacity: 1;" vector-effect="non-scaling-stroke"  transform=" translate(-0.5, -13)" d="M 0 0 C 3.58292058 2.72385775 4.40461984 6.62180043 5.625 10.75 C 5.8415625 11.4409375 6.058125 12.131875 6.28125 12.84375 C 7.64355177 17.31748173 8.32151009 21.25057061 9 26 C 3.39 26 -2.22 26 -8 26 C -7.67 23.69 -7.34 21.38 -7 19 C -6.34 19 -5.68 19 -5 19 C -4.731875 17.72125 -4.46375 16.4425 -4.1875 15.125 C -3.0548104 9.99937583 -1.56798699 5.00710512 0 0 Z" stroke-linecap="round" />
</g>
		<g transform="matrix(1 0 0 1 -246 11)"  >
<path style="stroke: none; stroke-width: 1; stroke-dasharray: none; stroke-linecap: butt; stroke-dashoffset: 0; stroke-linejoin: miter; stroke-miterlimit: 4; fill: rgb(164,127,103); fill-rule: nonzero; opacity: 1;" vector-effect="non-scaling-stroke"  transform=" translate(-18, -4)" d="M 0 0 C 1.125 3.75 1.125 3.75 0 6 C 12.54 6 25.08 6 38 6 C 38 6.66 38 7.32 38 8 C 24.8 8 11.6 8 -2 8 C -1 2 -1 2 0 0 Z" stroke-linecap="round" />
</g>
		<g transform="matrix(1 0 0 1 367.5 11.5)"  >
<path style="stroke: none; stroke-width: 1; stroke-dasharray: none; stroke-linecap: butt; stroke-dashoffset: 0; stroke-linejoin: miter; stroke-miterlimit: 4; fill: rgb(164,127,103); fill-rule: nonzero; opacity: 1;" vector-effect="non-scaling-stroke"  transform=" translate(-18.5, -3.5)" d="M 0 0 C 0.33 1.32 0.66 2.64 1 4 C 19.81 4.495 19.81 4.495 39 5 C 38.67 5.66 38.34 6.32 38 7 C 24.8 7 11.6 7 -2 7 C -1.34 4.69 -0.68 2.38 0 0 Z" stroke-linecap="round" />
</g>
		<g transform="matrix(1 0 0 1 210.5 -68)"  >
<path style="stroke: none; stroke-width: 1; stroke-dasharray: none; stroke-linecap: butt; stroke-dashoffset: 0; stroke-linejoin: miter; stroke-miterlimit: 4; fill: rgb(228,216,209); fill-rule: nonzero; opacity: 1;" vector-effect="non-scaling-stroke"  transform=" translate(4.5, -7)" d="M 0 0 C 0.66 0.33 1.32 0.66 2 1 C -2.29 5.29 -6.58 9.58 -11 14 C -11 10.30159372 -10.17133056 9.68584567 -7.75 7 C -7.14671875 6.319375 -6.5434375 5.63875 -5.921875 4.9375 C -4.06233388 3.06284066 -2.15205789 1.52358081 0 0 Z" stroke-linecap="round" />
</g>
		<g transform="matrix(1 0 0 1 80 -83)"  >
<path style="stroke: none; stroke-width: 1; stroke-dasharray: none; stroke-linecap: butt; stroke-dashoffset: 0; stroke-linejoin: miter; stroke-miterlimit: 4; fill: rgb(154,112,86); fill-rule: nonzero; opacity: 1;" vector-effect="non-scaling-stroke"  transform=" translate(5, -6)" d="M 0 0 C -1.47721422 3.45201639 -3.43794001 5.64961936 -6.125 8.25 C -6.84945312 8.95640625 -7.57390625 9.6628125 -8.3203125 10.390625 C -8.87460937 10.92171875 -9.42890625 11.4528125 -10 12 C -10 8.07290865 -8.72099538 7.1810287 -6.125 4.3125 C -5.04605469 3.10013672 -5.04605469 3.10013672 -3.9453125 1.86328125 C -2 0 -2 0 0 0 Z" stroke-linecap="round" />
</g>
		<g transform="matrix(1 0 0 1 -413 -69.5)"  >
<path style="stroke: none; stroke-width: 1; stroke-dasharray: none; stroke-linecap: butt; stroke-dashoffset: 0; stroke-linejoin: miter; stroke-miterlimit: 4; fill: rgb(231,222,216); fill-rule: nonzero; opacity: 1;" vector-effect="non-scaling-stroke"  transform=" translate(4, -5.5)" d="M 0 0 C 0.66 0.33 1.32 0.66 2 1 C -1.3 4.3 -4.6 7.6 -8 11 C -8.66 10.67 -9.32 10.34 -10 10 C -3.84965831 2.51708428 -3.84965831 2.51708428 0 0 Z" stroke-linecap="round" />
</g>
		<g transform="matrix(1 0 0 1 -254.5 -8.5)"  >
<path style="stroke: none; stroke-width: 1; stroke-dasharray: none; stroke-linecap: butt; stroke-dashoffset: 0; stroke-linejoin: miter; stroke-miterlimit: 4; fill: rgb(215,198,186); fill-rule: nonzero; opacity: 1;" vector-effect="non-scaling-stroke"  transform=" translate(1.5, -2.5)" d="M 0 0 C 2 3 2 3 2 5 C -0.31 5 -2.62 5 -5 5 C -5 4.34 -5 3.68 -5 3 C -3.35 3 -1.7 3 0 3 C 0 2.01 0 1.02 0 0 Z" stroke-linecap="round" />
</g>
		<g transform="matrix(1 0 0 1 -273.5 -65.5)"  >
<path style="stroke: none; stroke-width: 1; stroke-dasharray: none; stroke-linecap: butt; stroke-dashoffset: 0; stroke-linejoin: miter; stroke-miterlimit: 4; fill: rgb(232,223,217); fill-rule: nonzero; opacity: 1;" vector-effect="non-scaling-stroke"  transform=" translate(-0.5, -3.5)" d="M 0 0 C 1.5 1.375 1.5 1.375 3 3 C 3 3.66 3 4.32 3 5 C 1.35 5.66 -0.3 6.32 -2 7 C -1.34 4.69 -0.68 2.38 0 0 Z" stroke-linecap="round" />
</g>
</g>
</g>
</svg>