<?xml version="1.0"?>
<svg width="1080" height="1080" xmlns="http://www.w3.org/2000/svg" xmlns:svg="http://www.w3.org/2000/svg" version="1.1">
 <g class="layer">
  <title>Layer 1</title>
  <path d="m58,373c323.07,0 646.14,0 979,0c0,107.25 0,214.5 0,325c-323.07,0 -646.14,0 -979,0c0,-107.25 0,-214.5 0,-325z" fill="#FEFEFE" id="svg_1"/>
  <path d="m0,0c9.93,7.81 16.87,16.06 21,28c0.37,0.87 0.75,1.74 1.13,2.63c5.06,12.65 4.57,26.42 -0.57,38.92c-2.41,5.44 -5.13,10.59 -8.56,15.45c-0.44,0.62 -0.87,1.24 -1.32,1.88c-4.25,5.43 -9.88,9.47 -15.68,13.12c-0.66,0 -1.32,0 -2,0c0,0.66 0,1.32 0,2c-13.56,7.86 -29.75,9 -44.81,5.38c-6.45,-1.93 -11.74,-4.46 -17.19,-8.38c-0.83,-0.56 -1.66,-1.13 -2.52,-1.71c-7.33,-5.34 -11.66,-11.73 -16.48,-19.29c-1.06,-1.53 -1.06,-1.53 -2.15,-3.09c-7.12,-11.18 -6.46,-28.37 -4.52,-41.04c1.46,-6.59 4.69,-12.48 8.67,-17.87c0.6,-0.81 1.2,-1.63 1.82,-2.46c20.33,-26.47 55.46,-32.91 83.18,-13.54z" fill="#875637" id="svg_2" transform="translate(811,449)"/>
  <path d="m0,0c8.58,0 17.16,0 26,0c0.88,2.05 1.76,4.1 2.67,6.21c0.87,2.02 1.74,4.04 2.61,6.06c0.6,1.38 1.19,2.77 1.79,4.16c3.09,7.2 6.24,14.34 9.82,21.32c1.83,3.71 3.38,7.53 4.92,11.38c1.05,2.59 2.11,5.19 3.19,7.87c0.33,-11.88 0.66,-23.76 1,-36c-3.63,0 -7.26,0 -11,0c2.08,-7.55 4.69,-13.72 8,-21c13.2,0 26.4,0 40,0c-3.4,11.33 -3.4,11.33 -5.12,15.56c-0.5,1.24 -0.5,1.24 -1.01,2.51c-0.87,1.93 -0.87,1.93 -1.87,2.93c-1.98,0 -3.96,0 -6,0c0,30.69 0,61.38 0,93c-6.93,0 -13.86,0 -21,0c-3.98,-8.37 -7.82,-16.78 -11.44,-25.31c-0.35,-0.83 -0.71,-1.66 -1.07,-2.52c-0.33,-0.77 -0.65,-1.55 -0.99,-2.35c-0.43,-1.03 -0.43,-1.03 -0.88,-2.09c-0.62,-1.73 -0.62,-1.73 -0.62,-3.73c-0.66,0 -1.32,0 -2,0c-0.23,-0.59 -0.46,-1.19 -0.7,-1.8c-0.33,-0.83 -0.65,-1.66 -0.99,-2.51c-0.31,-0.8 -0.62,-1.6 -0.95,-2.43c-2,-4.8 -4.21,-9.52 -6.36,-14.26c-0.33,11.88 -0.66,23.76 -1,36c3.63,0 7.26,0 11,0c-2.08,7.55 -4.69,13.72 -8,21c-13.2,0 -26.4,0 -40,0c1.81,-5.44 3.61,-10.74 5.69,-16.06c0.43,-1.13 0.87,-2.25 1.32,-3.41c0.33,-0.84 0.65,-1.67 0.99,-2.53c1.98,0 3.96,0 6,0c0,-23.43 0,-46.86 0,-71c-3.63,0 -7.26,0 -11,0c0.61,-5.77 2.78,-10.7 5,-16c0.66,-1.65 1.32,-3.3 2,-5z" fill="#875537" id="svg_3" transform="translate(897,441)"/>
  <path d="m0,0c11.22,0 22.44,0 34,0c0.82,2.33 1.64,4.65 2.48,7.05c0.81,2.29 1.62,4.58 2.43,6.87c0.55,1.58 1.11,3.15 1.66,4.72c5.43,15.66 5.43,15.66 11.36,31.14c2.38,5.88 4.47,11.87 6.53,17.87c0.67,1.91 1.34,3.83 2,5.74c2.25,6.5 4.23,12.86 5.54,19.61c3.63,0 7.26,0 11,0c-1,5 -1,5 -8,21c-13.2,0 -26.4,0 -40,0c0.79,-4.73 1.47,-7.48 3.44,-11.62c0.65,-1.39 0.65,-1.39 1.31,-2.79c1.06,-2.21 2.15,-4.4 3.25,-6.59c2.31,0 4.62,0 7,0c-0.36,-0.98 -0.72,-1.95 -1.09,-2.96c-0.47,-1.28 -0.94,-2.57 -1.41,-3.85c-0.24,-0.65 -0.48,-1.29 -0.72,-1.95c-1.05,-2.89 -1.78,-5.14 -1.78,-8.24c-11.22,0 -22.44,0 -34,0c-1.32,5.28 -2.64,10.56 -4,16c3.3,0 6.6,0 10,0c-1.89,7.57 -5.17,14.73 -8,22c-13.53,0 -27.06,0 -41,0c0.73,-2.93 1.48,-5.36 2.63,-8.11c0.47,-1.13 0.47,-1.13 0.95,-2.28c0.32,-0.78 0.65,-1.56 0.98,-2.36c0.33,-0.79 0.66,-1.59 1,-2.4c0.81,-1.95 1.63,-3.9 2.44,-5.85c2.64,0 5.28,0 8,0c0.12,-0.65 0.24,-1.3 0.37,-1.98c0.92,-4.81 1.93,-9.41 3.63,-14.02c-3.63,-0.33 -7.26,-0.66 -11,-1c1.39,-4.53 2.7,-8.74 5.12,-12.81c2.08,-3.18 2.08,-3.18 2.88,-7.19c3.63,0 7.26,0 11,0c0.65,-2.48 0.65,-2.48 1.31,-5c2.05,-7.81 5.11,-15.13 8.38,-22.5c0.32,-0.73 0.64,-1.45 0.97,-2.2c0.78,-1.77 1.56,-3.53 2.34,-5.3c-3.63,0 -7.26,0 -11,0c0.45,-4.51 1.75,-7.85 3.87,-11.78c1.53,-3 2.8,-6.12 4.13,-9.22z" fill="#885638" id="svg_4" transform="translate(245,441)"/>
  <path d="m0,0c13.2,0 26.4,0 40,0c-0.66,3.32 -1.24,5.92 -2.41,8.99c-0.4,1.06 -0.4,1.06 -0.81,2.14c-0.28,0.72 -0.56,1.44 -0.84,2.18c-0.28,0.74 -0.57,1.48 -0.86,2.25c-0.69,1.81 -1.38,3.63 -2.08,5.44c-1.98,0 -3.96,0 -6,0c0.04,8.09 0.1,16.19 0.18,24.28c0.04,3.76 0.08,7.52 0.09,11.28c0.02,3.63 0.05,7.26 0.1,10.89c0.01,1.38 0.02,2.76 0.02,4.14c-0.07,10.44 -0.07,10.44 4.61,19.41c3.1,2.07 3.95,2.29 7.5,2.31c1.16,0.03 1.16,0.03 2.34,0.05c2.65,-0.44 3.39,-1.42 5.16,-3.36c0.66,0 1.32,0 2,0c1.84,-3.94 2.27,-7.11 2.32,-11.44c0.02,-1.28 0.04,-2.56 0.06,-3.88c0.01,-1.39 0.02,-2.78 0.03,-4.17c0.02,-1.43 0.04,-2.85 0.06,-4.28c0.05,-3.75 0.09,-7.49 0.13,-11.24c0.04,-3.83 0.09,-7.66 0.14,-11.48c0.1,-7.51 0.18,-15.01 0.26,-22.51c-3.63,0 -7.26,0 -11,0c0.42,-6.51 2.94,-11.31 6,-17c0.66,-1.32 1.32,-2.64 2,-4c13.2,0 26.4,0 40,0c-0.89,4.47 -2.06,7.57 -4,11.63c-2.2,4.6 -2.2,4.6 -4,9.37c-1.98,0 -3.96,0 -6,0c0.01,1.19 0.01,1.19 0.02,2.4c0.06,7.5 0.11,15 0.14,22.51c0.01,3.85 0.03,7.71 0.07,11.56c0.03,3.73 0.05,7.46 0.05,11.19c0.01,1.41 0.02,2.83 0.04,4.24c0.16,15.17 -2.74,24.74 -13.08,36.02c-7.42,6.99 -15.87,7.57 -25.64,7.5c-5.93,-0.19 -10.65,-0.95 -15.6,-4.42c-0.68,-0.47 -1.36,-0.95 -2.06,-1.44c-6.9,-5.43 -12.15,-13.24 -14.94,-21.56c-0.24,-3.18 -0.24,-3.18 -0.23,-6.81c0,-0.66 0,-1.33 0,-2.01c0,-2.18 0.02,-4.36 0.03,-6.54c0.01,-1.52 0.01,-3.04 0.01,-4.56c0.01,-3.98 0.03,-7.96 0.05,-11.95c0.02,-4.06 0.03,-8.13 0.04,-12.2c0.02,-7.98 0.06,-15.95 0.1,-23.93c-3.96,0 -7.92,0 -12,0c0.77,-2.19 1.54,-4.38 2.31,-6.56c0.43,-1.22 0.86,-2.44 1.3,-3.69c1.35,-3.63 2.87,-7.19 4.39,-10.75z" fill="#875637" id="svg_5" transform="translate(331,441)"/>
  <path d="m0,0c23.76,0 47.52,0 72,0c-3.92,11.76 -3.92,11.76 -5.5,16.31c-0.4,1.17 -0.8,2.35 -1.22,3.55c-1.17,2.87 -2.43,4.71 -4.28,7.14c-0.79,1.89 -1.52,3.81 -2.19,5.75c-0.6,1.73 -1.19,3.47 -1.81,5.25c-6.6,0 -13.2,0 -20,0c0.88,-5.31 2.06,-9.1 4,-14c0.66,0 1.32,0 2,0c0,-0.99 0,-1.98 0,-3c-5.28,0 -10.56,0 -16,0c0,8.25 0,16.5 0,25c8.58,0 17.16,0 26,0c-0.82,4.09 -1.7,6.86 -3.44,10.56c-0.43,0.93 -0.86,1.86 -1.31,2.82c-1.06,2.22 -2.15,4.42 -3.25,6.62c-5.94,0 -11.88,0 -18,0c0,8.58 0,17.16 0,26c7.59,-0.33 15.18,-0.66 23,-1c0.8,-1.96 1.61,-3.92 2.44,-5.94c2.44,-5.93 2.44,-5.93 3.56,-7.06c1.42,-0.09 2.84,-0.11 4.25,-0.1c1.28,0.01 1.28,0.01 2.59,0.01c1.35,0.01 1.35,0.01 2.72,0.03c0.9,0 1.81,0.01 2.73,0.01c2.24,0.01 4.47,0.03 6.71,0.05c-2.5,12.51 -8.39,24.1 -13,36c-23.76,0 -47.52,0 -72,0c0.74,-2.95 1.53,-5.52 2.63,-8.33c0.31,-0.8 0.62,-1.6 0.95,-2.42c0.32,-0.83 0.65,-1.65 0.98,-2.5c0.33,-0.84 0.66,-1.68 1,-2.55c0.81,-2.07 1.62,-4.13 2.44,-6.2c1.98,0 3.96,0 6,0c0,-8.58 0,-17.16 0,-26c-3.96,0 -7.92,0 -12,0c2.16,-6.94 4.89,-13.43 8,-20c1.32,0 2.64,0 4,0c0,-8.25 0,-16.5 0,-25c-3.63,0 -7.26,0 -11,0c1,-6 1,-6 7,-21z" fill="#885738" id="svg_6" transform="translate(527,441)"/>
  <path d="m0,0c0.7,0 1.41,0 2.13,0c8.6,0.21 15.27,3.33 22.12,8.38c0.66,-2.31 1.32,-4.63 2,-7c6.93,0 13.86,0 21,0c-0.66,1.64 -1.32,3.29 -2,5c-0.46,1.88 -0.9,3.78 -1.31,5.68c-1.22,5.03 -2.98,9.18 -5.42,13.72c-1.92,3.93 -3.18,8.05 -4.47,12.22c-0.8,2.38 -0.8,2.38 -1.8,3.38c-1.49,0.08 -2.98,0.1 -4.47,0.09c-0.9,0 -1.8,0 -2.73,-0.01c-1.42,-0.01 -1.42,-0.01 -2.86,-0.02c-1.43,-0.01 -1.43,-0.01 -2.88,-0.02c-2.35,-0.01 -4.71,-0.02 -7.06,-0.04c0.03,-0.89 0.07,-1.77 0.11,-2.67c0.04,-1.75 0.04,-1.75 0.08,-3.52c0.03,-1.15 0.07,-2.3 0.1,-3.48c-0.32,-3.65 -1.1,-5.44 -3.29,-8.33c-3.92,-2.29 -7.52,-2.4 -12,-2c-4.15,1.79 -6.24,3.83 -8,8c-0.54,4.89 -0.52,6.99 1.75,11.37c2.7,3.15 4.55,4.44 8.7,4.9c0.88,0.03 1.76,0.07 2.68,0.1c5.84,0.42 10.59,2.16 15.87,4.63c0,0.65 0,1.32 0,2c0.74,0.25 1.48,0.5 2.24,0.76c5.48,2.45 9.5,7.21 12.64,12.24c4.49,11.99 4.03,22.1 -0.88,34c-3.37,6.11 -8.14,10.3 -14,14c-0.62,0.41 -1.24,0.83 -1.88,1.25c-7.99,4.48 -19.27,4.16 -28,2.05c-5.25,-2.18 -9.74,-5.73 -14.12,-9.3c-0.31,1.13 -0.62,2.26 -0.94,3.43c-1.06,3.57 -1.06,3.57 -2.06,4.57c-1.49,0.08 -2.98,0.1 -4.47,0.09c-0.9,0 -1.8,0 -2.73,-0.01c-1.42,-0.01 -1.42,-0.01 -2.86,-0.02c-0.95,-0.01 -1.9,-0.01 -2.88,-0.02c-2.35,-0.01 -4.71,-0.02 -7.06,-0.04c0.57,-5.22 1.82,-9.79 3.72,-14.69c0.27,-0.7 0.53,-1.4 0.81,-2.12c0.83,-2.21 1.68,-4.42 2.53,-6.63c0.58,-1.51 1.15,-3.02 1.72,-4.53c1.4,-3.68 2.81,-7.36 4.22,-11.03c6.93,0 13.86,0 21,0c0.49,4.95 0.49,4.95 1,10c0.95,2.61 0.95,2.61 2.37,4.5c0.64,0.94 0.64,0.94 1.28,1.9c2.13,2.51 3.83,3.54 7.09,3.9c1.04,0 2.07,0 3.14,0.01c1.02,0.01 2.05,0.03 3.11,0.05c3.43,-0.42 5.25,-1.32 8.01,-3.36c3.41,-4.61 4.68,-8.12 4.38,-13.86c-0.84,-4.7 -3.38,-7.35 -7.01,-10.23c-3.97,-2.26 -7.16,-2.75 -11.62,-3.29c-9.09,-1.37 -16.09,-4.04 -22.13,-11.31c-6.2,-9.34 -8.17,-19.2 -6.62,-30.31c3.29,-9.67 9.14,-16.93 18,-22c4.58,-1.88 8.84,-2.39 13.75,-2.38z" fill="#875537" id="svg_7" transform="translate(469.75,439.625)"/>
  <path d="m0,0c0.33,-1.65 0.66,-3.3 1,-5c6.6,0 13.2,0 20,0c-0.75,3.75 -1.51,6.56 -2.93,10.02c-0.38,0.94 -0.77,1.88 -1.16,2.85c-0.4,0.97 -0.81,1.94 -1.22,2.94c-0.39,0.96 -0.78,1.92 -1.19,2.91c-2.28,5.56 -4.75,10.94 -7.5,16.28c-0.66,1.32 -1.32,2.64 -2,4c-6.27,0 -12.54,0 -19,0c1,-6 1,-6 2.12,-8.62c1.01,-2.27 1.01,-2.27 0.82,-4.36c-0.83,-2.29 -0.83,-2.29 -3.57,-3.5c-12.36,-4.48 -23.46,-5.6 -35.78,0c-2.7,1.46 -2.7,1.46 -5.3,3.65c-2.29,1.83 -2.29,1.83 -4.29,1.83c-0.43,0.93 -0.43,0.93 -0.88,1.88c-1.12,2.12 -1.12,2.12 -3.12,4.12c-0.72,1.81 -1.38,3.65 -2,5.5c-1.78,5.28 -1.78,5.28 -4,7.5c-0.26,2.72 -0.38,5.28 -0.38,8c0,0.77 0,1.53 0,2.32c0.1,5.51 1.04,9.91 3.5,14.89c0.88,1.79 0.88,1.79 0.88,3.79c0.66,0 1.32,0 2,0c1.23,1.54 1.23,1.54 2.62,3.63c5.01,6.86 11.13,11.12 19.38,13.37c3.33,0.45 6.64,0.6 10,0.69c0.87,0.03 1.74,0.07 2.64,0.1c2.12,0.08 4.24,0.15 6.36,0.21c0,-0.66 0,-1.32 0,-2c1.89,-0.56 1.89,-0.56 3.81,-1.12c5.79,-1.91 10.93,-4.84 16.19,-7.88c0.69,1 0.69,1 1.39,2.01c3.87,5.58 3.87,5.58 8.05,10.93c1.56,2.06 1.56,2.06 1.56,5.06c-3.42,2.7 -7.25,4.79 -11,7c-0.76,0.48 -1.53,0.96 -2.31,1.46c-12.46,7.56 -27.96,8.51 -42,5.42c-14.91,-4.4 -27.99,-13.15 -35.69,-26.88c-0.7,-1.99 -1.38,-3.99 -2,-6c-0.99,-0.33 -1.98,-0.66 -3,-1c-3.87,-8.51 -4.39,-17.66 -4.44,-26.87c-0.01,-0.97 -0.02,-1.93 -0.03,-2.92c0.19,-15.49 8.11,-28.1 18.38,-39.29c21.78,-20.49 48.66,-18.28 74.09,-6.92z" fill="#885638" id="svg_8" transform="translate(695,446)"/>
  <path d="m0,0c1.35,-0.01 1.35,-0.01 2.72,-0.02c8.23,0.02 14.98,1.81 22.66,4.83c1.66,0.65 1.66,0.65 3.36,1.32c2.76,1.12 2.76,1.12 4.76,2.12c0,-0.66 0,-1.32 0,-2c0.66,0 1.32,0 2,0c0,-0.99 0,-1.98 0,-3c6.6,0 13.2,0 20,0c-0.88,5.28 -1.05,6.21 -3.82,10.04c-2.84,4.71 -4.46,10.13 -6.37,15.27c-0.88,2.37 -1.77,4.75 -2.67,7.12c-0.38,1.04 -0.77,2.09 -1.17,3.16c-0.97,2.41 -0.97,2.41 -1.97,3.41c-1.42,0.09 -2.84,0.11 -4.25,0.1c-0.86,-0.01 -1.71,-0.01 -2.59,-0.01c-1.35,-0.01 -1.35,-0.01 -2.72,-0.03c-0.9,0 -1.81,-0.01 -2.73,-0.01c-2.24,-0.01 -4.47,-0.03 -6.71,-0.05c0.61,-3.96 1.5,-7.29 3,-11c0,-0.99 0,-1.98 0,-3c-1.92,-0.82 -3.83,-1.63 -5.75,-2.44c-1.07,-0.45 -2.13,-0.9 -3.23,-1.37c-8.09,-3.19 -18.75,-4.04 -26.9,-0.56c-1.39,0.75 -2.77,1.54 -4.12,2.37c-1.15,0.65 -1.15,0.65 -2.33,1.32c-7.76,4.71 -12.85,11.12 -15.97,19.65c-2.55,11.05 -1.59,22.23 4.3,32.03c5.62,7.82 12.71,14.1 22,17c4.04,0.45 8,0.38 12.06,0.25c1.06,-0.02 2.12,-0.04 3.2,-0.05c2.58,-0.05 5.16,-0.12 7.74,-0.2c0,-0.66 0,-1.32 0,-2c0.66,-0.24 1.33,-0.48 2.01,-0.73c4.95,-1.88 9.06,-3.6 12.99,-7.27c4.3,1.49 6.07,4.65 8.31,8.38c0.37,0.57 0.75,1.15 1.13,1.75c2.62,4.27 2.62,4.27 2.36,6.92c-0.99,2.42 -1.92,3.05 -4.16,4.39c-0.7,0.42 -1.39,0.83 -2.11,1.27c-0.75,0.42 -1.51,0.85 -2.28,1.29c-1.16,0.66 -1.16,0.66 -2.34,1.34c-14.51,8.05 -29.05,10.13 -45.1,5.85c-4.56,-1.31 -8.62,-2.97 -12.81,-5.19c0,-0.66 0,-1.32 0,-2c-0.8,-0.17 -1.61,-0.33 -2.44,-0.5c-11.07,-4.66 -18.82,-15.98 -23.44,-26.69c-3.25,-8.13 -4.49,-15.42 -4.43,-24.12c0,-0.93 0.01,-1.86 0.01,-2.82c0.12,-6.69 0.7,-12.64 3.3,-18.87c0.4,-0.98 0.8,-1.96 1.22,-2.97c6.91,-15.2 19.47,-25.78 34.78,-32.03c6.27,-1.94 11.96,-2.31 18.5,-2.25z" fill="#875537" id="svg_9" transform="translate(151.5,437.75)"/>
  <path d="m0,0c7.28,6.12 13.2,14.01 14.43,23.66c1,11.97 -0.82,22.14 -8.74,31.59c-2.64,2.76 -5.34,5.33 -8.5,7.5c-0.66,0 -1.32,0 -2,0c0,0.66 0,1.32 0,2c-10.2,4.93 -22.57,6.28 -33.44,2.56c-7.62,-3.66 -14.56,-10.1 -18.56,-17.56c0,-0.66 0,-1.32 0,-2c-0.66,0 -1.32,0 -2,0c-4.4,-10.09 -4.92,-22.15 -1,-32.5c4.59,-9.4 11.44,-16.2 21,-20.5c13.26,-4.46 27.48,-3.01 38.81,5.25z" fill="#FDFDFC" id="svg_10" transform="translate(799.8125,467.25)"/>
  <path d="m0,0c13.2,0 26.4,0 40,0c-1.79,5.36 -3.5,10.41 -5.69,15.56c-0.43,1.04 -0.87,2.07 -1.32,3.13c-0.49,1.14 -0.49,1.14 -0.99,2.31c-2.31,0 -4.62,0 -7,0c0,23.76 0,47.52 0,72c3.96,0 7.92,0 12,0c-0.52,4.5 -1.66,7.18 -4,11c-1.98,4.95 -1.98,4.95 -4,10c-13.2,0 -26.4,0 -40,0c1.12,-6.75 1.12,-6.75 2.63,-9.87c0.47,-0.98 0.47,-0.98 0.95,-1.99c0.32,-0.66 0.65,-1.33 0.98,-2.01c0.33,-0.69 0.66,-1.38 1,-2.09c0.81,-1.68 1.62,-3.36 2.44,-5.04c1.98,0 3.96,0 6,0c0,-23.76 0,-47.52 0,-72c-3.96,0 -7.92,0 -12,0c0.82,-4.12 1.35,-5.97 3.37,-9.37c2.28,-3.85 3.82,-7.41 5.63,-11.63z" fill="#875536" id="svg_11" transform="translate(847,441)"/>
  <path d="m0,0c2.39,2.94 4.7,5.87 6.75,9.06c0.43,0.65 0.86,1.3 1.3,1.98c0.95,1.96 0.95,1.96 0.95,5.96c0.66,0 1.32,0 2,0c0.88,2.38 0.88,2.38 1,6c-1.68,3.54 -3.86,6.72 -6,10c-0.97,1.7 -1.93,3.41 -2.87,5.13c-0.62,1.11 -0.62,1.11 -1.25,2.25c-0.29,0.54 -0.58,1.07 -0.88,1.62c-3.55,-3.2 -5.87,-6.81 -8.19,-10.94c-0.35,-0.61 -0.71,-1.21 -1.07,-1.84c-1.94,-3.4 -3.38,-6.31 -3.74,-10.22c0.99,-2.31 0.99,-2.31 2.53,-4.64c0.54,-0.85 1.09,-1.69 1.65,-2.55c0.87,-1.3 0.87,-1.3 1.76,-2.62c0.57,-0.89 1.15,-1.77 1.75,-2.68c1.42,-2.18 2.86,-4.35 4.31,-6.51z" fill="#92442A" id="svg_12" transform="translate(540,610)"/>
  <path d="m0,0c3.58,2.72 4.4,6.62 5.63,10.75c0.21,0.69 0.43,1.38 0.65,2.09c1.36,4.48 2.04,8.41 2.72,13.16c-5.61,0 -11.22,0 -17,0c0.33,-2.31 0.66,-4.62 1,-7c0.66,0 1.32,0 2,0c0.27,-1.28 0.54,-2.56 0.81,-3.87c1.14,-5.13 2.62,-10.12 4.19,-15.13z" fill="#F8F6F4" id="svg_13" transform="translate(266,471)"/>
  <path d="m0,0c1.13,3.75 1.13,3.75 0,6c12.54,0 25.08,0 38,0c0,0.66 0,1.32 0,2c-13.2,0 -26.4,0 -40,0c1,-6 1,-6 2,-8z" fill="#A47F67" id="svg_14" transform="translate(276,547)"/>
  <path d="m0,0c0.33,1.32 0.66,2.64 1,4c18.81,0.5 18.81,0.5 38,1c-0.33,0.66 -0.66,1.32 -1,2c-13.2,0 -26.4,0 -40,0c0.66,-2.31 1.32,-4.62 2,-7z" fill="#A47F67" id="svg_15" transform="translate(889,548)"/>
  <path d="m0,0c0.66,0.33 1.32,0.66 2,1c-4.29,4.29 -8.58,8.58 -13,13c0,-3.7 0.83,-4.31 3.25,-7c0.6,-0.68 1.21,-1.36 1.83,-2.06c1.86,-1.88 3.77,-3.42 5.92,-4.94z" fill="#E4D8D1" id="svg_16" transform="translate(755,465)"/>
  <path d="m0,0c-1.48,3.45 -3.44,5.65 -6.13,8.25c-0.72,0.71 -1.44,1.41 -2.19,2.14c-0.55,0.53 -1.11,1.06 -1.68,1.61c0,-3.93 1.28,-4.82 3.87,-7.69c1.08,-1.21 1.08,-1.21 2.18,-2.45c1.95,-1.86 1.95,-1.86 3.95,-1.86z" fill="#9A7056" id="svg_17" transform="translate(625,451)"/>
  <path d="m0,0c0.66,0.33 1.32,0.66 2,1c-3.3,3.3 -6.6,6.6 -10,10c-0.66,-0.33 -1.32,-0.66 -2,-1c6.15,-7.48 6.15,-7.48 10,-10z" fill="#E7DED8" id="svg_18" transform="translate(131,465)"/>
  <path d="m0,0c2,3 2,3 2,5c-2.31,0 -4.62,0 -7,0c0,-0.66 0,-1.32 0,-2c1.65,0 3.3,0 5,0c0,-0.99 0,-1.98 0,-3z" fill="#D7C6BA" id="svg_19" transform="translate(287,529)"/>
  <path d="m0,0c1.5,1.38 1.5,1.38 3,3c0,0.66 0,1.32 0,2c-1.65,0.66 -3.3,1.32 -5,2c0.66,-2.31 1.32,-4.62 2,-7z" fill="#E8DFD9" id="svg_20" transform="translate(266,471)"/>
 </g>
</svg>